<mxfile host="app.diagrams.net" agent="Mozilla/5.0 (Windows NT 10.0; Win64; x64; rv:128.0) Gecko/20100101 Firefox/128.0" version="24.7.14">
  <diagram name="Page-1" id="KmGVy_kBPqpLW0AQKFqx">
    <mxGraphModel dx="2855" dy="1671" grid="1" gridSize="10" guides="1" tooltips="1" connect="1" arrows="1" fold="1" page="1" pageScale="1" pageWidth="1169" pageHeight="827" math="0" shadow="0">
      <root>
        <mxCell id="0" />
        <mxCell id="1" parent="0" />
        <mxCell id="O-lyJpqK40S3YLU1jmWo-1" value="Option 1 - Array Method" style="swimlane;html=1;startSize=20;horizontal=1;containerType=tree;glass=0;swimlaneLine=0;rounded=0;strokeColor=default;strokeWidth=2;" parent="1" vertex="1">
          <mxGeometry x="-1000" y="-740" width="1010" height="1510" as="geometry" />
        </mxCell>
        <UserObject label="&lt;div align=&quot;center&quot;&gt;Barre de recherche&lt;/div&gt;&lt;div&gt;&lt;br&gt;&lt;/div&gt;&lt;div&gt;&lt;span style=&quot;font-weight: normal;&quot;&gt;Enregistrement de la recherche en cours&lt;/span&gt;&lt;br&gt;&lt;/div&gt;(au moins 3 caractères passés)" name="" position="" location="" email="" id="O-lyJpqK40S3YLU1jmWo-2">
          <mxCell style="label;whiteSpace=wrap;html=1;rounded=0;glass=0;treeMoving=1;treeFolding=1;fillColor=#fff2cc;strokeColor=#d6b656;strokeWidth=0;" parent="O-lyJpqK40S3YLU1jmWo-1" vertex="1">
            <mxGeometry x="220" y="231" width="300" height="90" as="geometry" />
          </mxCell>
        </UserObject>
        <mxCell id="O-lyJpqK40S3YLU1jmWo-4" value="&lt;div style=&quot;font-size: 11px;&quot;&gt;&lt;font style=&quot;font-size: 11px;&quot;&gt;Récupération du nom&lt;/font&gt;&lt;/div&gt;&lt;div style=&quot;font-size: 11px;&quot;&gt;&lt;font style=&quot;font-size: 11px;&quot;&gt;&lt;br&gt;&lt;/font&gt;&lt;/div&gt;&lt;div style=&quot;font-size: 11px;&quot;&gt;&lt;font style=&quot;font-size: 11px;&quot;&gt;Récupération de la description&lt;/font&gt;&lt;/div&gt;&lt;div style=&quot;font-size: 11px;&quot;&gt;&lt;font style=&quot;font-size: 11px;&quot;&gt;&lt;br&gt;&lt;/font&gt;&lt;/div&gt;&lt;div style=&quot;font-size: 11px;&quot;&gt;&lt;font style=&quot;font-size: 11px;&quot;&gt;Récupération de la liste des ingrédients&lt;/font&gt;&lt;/div&gt;&lt;div style=&quot;font-size: 11px;&quot;&gt;&lt;font style=&quot;font-size: 11px;&quot;&gt;&lt;br&gt;&lt;/font&gt;&lt;/div&gt;" style="rounded=0;whiteSpace=wrap;html=1;" parent="O-lyJpqK40S3YLU1jmWo-1" vertex="1">
          <mxGeometry x="270" y="540" width="190" height="110" as="geometry" />
        </mxCell>
        <mxCell id="-RLxROrZtWnF0igENEq9-5" style="edgeStyle=orthogonalEdgeStyle;rounded=0;orthogonalLoop=1;jettySize=auto;html=1;entryX=0.998;entryY=0.577;entryDx=0;entryDy=0;entryPerimeter=0;" edge="1" parent="O-lyJpqK40S3YLU1jmWo-1" source="O-lyJpqK40S3YLU1jmWo-14" target="eEkAvyaPnaVwtxJP-sON-17">
          <mxGeometry relative="1" as="geometry">
            <mxPoint x="530" y="110" as="targetPoint" />
            <Array as="points">
              <mxPoint x="640" y="461" />
              <mxPoint x="640" y="130" />
            </Array>
          </mxGeometry>
        </mxCell>
        <mxCell id="O-lyJpqK40S3YLU1jmWo-14" value="&lt;div style=&quot;font-size: 11px;&quot;&gt;&lt;font style=&quot;font-size: 11px;&quot;&gt;Mise à jour du &lt;b&gt;tableau résultats&lt;/b&gt; en fonction du filtrage des recettes&amp;nbsp;&lt;/font&gt;&lt;/div&gt;&lt;div style=&quot;font-size: 11px;&quot;&gt;&lt;font style=&quot;font-size: 11px;&quot;&gt;&lt;br&gt;&lt;/font&gt;&lt;/div&gt;" style="rounded=0;whiteSpace=wrap;html=1;" parent="O-lyJpqK40S3YLU1jmWo-1" vertex="1">
          <mxGeometry x="263.5" y="431" width="206" height="59" as="geometry" />
        </mxCell>
        <mxCell id="eEkAvyaPnaVwtxJP-sON-10" style="edgeStyle=orthogonalEdgeStyle;rounded=0;orthogonalLoop=1;jettySize=auto;html=1;exitX=0.75;exitY=1;exitDx=0;exitDy=0;strokeColor=default;" parent="O-lyJpqK40S3YLU1jmWo-1" source="O-lyJpqK40S3YLU1jmWo-15" edge="1">
          <mxGeometry relative="1" as="geometry">
            <mxPoint x="239.8571428571429" y="1360.22" as="targetPoint" />
          </mxGeometry>
        </mxCell>
        <mxCell id="O-lyJpqK40S3YLU1jmWo-15" value="&lt;div&gt;&lt;font style=&quot;font-size: 11px;&quot;&gt;Ajout de la recette &lt;br&gt;&lt;/font&gt;&lt;/div&gt;&lt;div&gt;&lt;font style=&quot;font-size: 11px;&quot;&gt;au &lt;b&gt;tableau résultats&lt;/b&gt;&lt;/font&gt;&lt;/div&gt;&lt;div&gt;&lt;font style=&quot;font-size: 11px;&quot;&gt;(si elle n&#39;y figure pas)&lt;b&gt;&lt;br&gt;&lt;/b&gt;&lt;/font&gt;&lt;/div&gt;" style="rounded=0;whiteSpace=wrap;html=1;fillColor=#fff2cc;strokeColor=#d6b656;" parent="O-lyJpqK40S3YLU1jmWo-1" vertex="1">
          <mxGeometry x="120" y="910.22" width="160" height="80" as="geometry" />
        </mxCell>
        <mxCell id="O-lyJpqK40S3YLU1jmWo-16" style="edgeStyle=none;curved=1;rounded=0;orthogonalLoop=1;jettySize=auto;html=1;exitX=0.5;exitY=1;exitDx=0;exitDy=0;entryX=0.5;entryY=0;entryDx=0;entryDy=0;fontSize=12;startSize=8;endSize=8;strokeColor=default;" parent="O-lyJpqK40S3YLU1jmWo-1" source="O-lyJpqK40S3YLU1jmWo-17" target="O-lyJpqK40S3YLU1jmWo-14" edge="1">
          <mxGeometry relative="1" as="geometry" />
        </mxCell>
        <mxCell id="O-lyJpqK40S3YLU1jmWo-17" value="&lt;font style=&quot;font-size: 11px;&quot;&gt;Initialisation du &lt;b&gt;tableau résultats&lt;/b&gt;&lt;/font&gt;" style="rounded=0;whiteSpace=wrap;html=1;" parent="O-lyJpqK40S3YLU1jmWo-1" vertex="1">
          <mxGeometry x="263.5" y="371" width="206" height="29" as="geometry" />
        </mxCell>
        <mxCell id="O-lyJpqK40S3YLU1jmWo-18" style="edgeStyle=none;curved=1;rounded=0;orthogonalLoop=1;jettySize=auto;html=1;exitX=0.516;exitY=1.008;exitDx=0;exitDy=0;fontSize=12;startSize=8;endSize=8;exitPerimeter=0;entryX=0.52;entryY=0.002;entryDx=0;entryDy=0;entryPerimeter=0;" parent="O-lyJpqK40S3YLU1jmWo-1" edge="1">
          <mxGeometry relative="1" as="geometry">
            <mxPoint x="366.1100000000001" y="321" as="sourcePoint" />
            <mxPoint x="366.07000000000016" y="371.3380000000001" as="targetPoint" />
          </mxGeometry>
        </mxCell>
        <mxCell id="O-lyJpqK40S3YLU1jmWo-19" value="&lt;div&gt;&lt;font style=&quot;font-size: 11px;&quot;&gt;Ajout de la recette &lt;br&gt;&lt;/font&gt;&lt;/div&gt;&lt;div&gt;&lt;font style=&quot;font-size: 11px;&quot;&gt;au &lt;b&gt;tableau résultats&lt;/b&gt;&lt;/font&gt;&lt;/div&gt;&lt;div&gt;&lt;font style=&quot;font-size: 11px;&quot;&gt;(si elle n&#39;y figure pas)&lt;b&gt;&lt;br&gt;&lt;/b&gt;&lt;/font&gt;&lt;/div&gt;" style="rounded=0;whiteSpace=wrap;html=1;fillColor=#fff2cc;strokeColor=#d6b656;" parent="O-lyJpqK40S3YLU1jmWo-1" vertex="1">
          <mxGeometry x="380" y="910.22" width="165" height="80" as="geometry" />
        </mxCell>
        <mxCell id="O-lyJpqK40S3YLU1jmWo-20" style="edgeStyle=none;curved=1;rounded=0;orthogonalLoop=1;jettySize=auto;html=1;entryX=0.352;entryY=-0.011;entryDx=0;entryDy=0;entryPerimeter=0;fontSize=12;startSize=8;endSize=8;" parent="O-lyJpqK40S3YLU1jmWo-1" target="O-lyJpqK40S3YLU1jmWo-19" edge="1">
          <mxGeometry relative="1" as="geometry">
            <mxPoint x="435.37183288409705" y="836.5" as="sourcePoint" />
            <mxPoint x="440.6299999999998" y="915.22" as="targetPoint" />
          </mxGeometry>
        </mxCell>
        <mxCell id="O-lyJpqK40S3YLU1jmWo-23" value="Filtrage des recettes" style="rounded=0;whiteSpace=wrap;html=1;fillColor=#dae8fc;strokeColor=#6c8ebf;" parent="O-lyJpqK40S3YLU1jmWo-1" vertex="1">
          <mxGeometry x="210" y="1360.22" width="270" height="130" as="geometry" />
        </mxCell>
        <mxCell id="O-lyJpqK40S3YLU1jmWo-25" value="&lt;font color=&quot;#000099&quot;&gt;oui&lt;/font&gt;" style="text;html=1;align=center;verticalAlign=middle;resizable=0;points=[];autosize=1;strokeColor=none;fillColor=none;fontSize=16;" parent="O-lyJpqK40S3YLU1jmWo-1" vertex="1">
          <mxGeometry x="200" y="860.22" width="40" height="30" as="geometry" />
        </mxCell>
        <mxCell id="O-lyJpqK40S3YLU1jmWo-26" value="&lt;font color=&quot;#000099&quot;&gt;oui&lt;/font&gt;" style="text;html=1;align=center;verticalAlign=middle;resizable=0;points=[];autosize=1;strokeColor=none;fillColor=none;fontSize=16;" parent="O-lyJpqK40S3YLU1jmWo-1" vertex="1">
          <mxGeometry x="460" y="860.22" width="40" height="30" as="geometry" />
        </mxCell>
        <mxCell id="O-lyJpqK40S3YLU1jmWo-27" value="&lt;font color=&quot;#cc0066&quot;&gt;non&lt;/font&gt;" style="text;html=1;align=center;verticalAlign=middle;resizable=0;points=[];autosize=1;strokeColor=none;fillColor=none;fontSize=16;" parent="O-lyJpqK40S3YLU1jmWo-1" vertex="1">
          <mxGeometry x="290" y="750.22" width="50" height="30" as="geometry" />
        </mxCell>
        <mxCell id="O-lyJpqK40S3YLU1jmWo-28" value="&lt;font color=&quot;#cc0066&quot;&gt;non&lt;/font&gt;" style="text;html=1;align=center;verticalAlign=middle;resizable=0;points=[];autosize=1;strokeColor=none;fillColor=none;fontSize=16;" parent="O-lyJpqK40S3YLU1jmWo-1" vertex="1">
          <mxGeometry x="535" y="749.22" width="50" height="30" as="geometry" />
        </mxCell>
        <mxCell id="O-lyJpqK40S3YLU1jmWo-29" value="&lt;div&gt;&lt;font style=&quot;font-size: 11px;&quot;&gt;Ajout de la recette &lt;br&gt;&lt;/font&gt;&lt;/div&gt;&lt;div&gt;&lt;font style=&quot;font-size: 11px;&quot;&gt;au &lt;b&gt;tableau résultats&lt;/b&gt;&lt;/font&gt;&lt;/div&gt;&lt;div&gt;&lt;font style=&quot;font-size: 11px;&quot;&gt;(si elle n&#39;existe pas)&lt;b&gt;&lt;br&gt;&lt;/b&gt;&lt;/font&gt;&lt;/div&gt;" style="rounded=0;whiteSpace=wrap;html=1;fillColor=#fff2cc;strokeColor=#d6b656;" parent="O-lyJpqK40S3YLU1jmWo-1" vertex="1">
          <mxGeometry x="612.5" y="1220.22" width="165" height="80" as="geometry" />
        </mxCell>
        <mxCell id="O-lyJpqK40S3YLU1jmWo-30" style="edgeStyle=none;curved=1;rounded=0;orthogonalLoop=1;jettySize=auto;html=1;fontSize=12;startSize=8;endSize=8;strokeColor=default;" parent="O-lyJpqK40S3YLU1jmWo-1" source="O-lyJpqK40S3YLU1jmWo-31" edge="1">
          <mxGeometry relative="1" as="geometry">
            <mxPoint x="695" y="1030.22" as="targetPoint" />
          </mxGeometry>
        </mxCell>
        <mxCell id="O-lyJpqK40S3YLU1jmWo-31" value="&lt;font style=&quot;font-size: 11px;&quot;&gt;Itération sur chaque ingrédient de la liste des ingrédients &lt;/font&gt;" style="rounded=0;whiteSpace=wrap;html=1;" parent="O-lyJpqK40S3YLU1jmWo-1" vertex="1">
          <mxGeometry x="603.5" y="915.22" width="183" height="70" as="geometry" />
        </mxCell>
        <mxCell id="O-lyJpqK40S3YLU1jmWo-32" style="edgeStyle=none;curved=1;rounded=0;orthogonalLoop=1;jettySize=auto;html=1;entryX=0.462;entryY=0;entryDx=0;entryDy=0;entryPerimeter=0;fontSize=12;startSize=8;endSize=8;strokeColor=default;" parent="O-lyJpqK40S3YLU1jmWo-1" target="O-lyJpqK40S3YLU1jmWo-31" edge="1">
          <mxGeometry relative="1" as="geometry">
            <mxPoint x="686" y="851.22" as="sourcePoint" />
          </mxGeometry>
        </mxCell>
        <mxCell id="O-lyJpqK40S3YLU1jmWo-33" value="&lt;font color=&quot;#cc0066&quot;&gt;non&lt;/font&gt;" style="text;html=1;align=center;verticalAlign=middle;resizable=0;points=[];autosize=1;strokeColor=none;fillColor=none;fontSize=16;" parent="O-lyJpqK40S3YLU1jmWo-1" vertex="1">
          <mxGeometry x="800" y="750.22" width="50" height="30" as="geometry" />
        </mxCell>
        <mxCell id="O-lyJpqK40S3YLU1jmWo-34" value="&lt;font color=&quot;#000099&quot;&gt;oui&lt;/font&gt;" style="text;html=1;align=center;verticalAlign=middle;resizable=0;points=[];autosize=1;strokeColor=none;fillColor=none;fontSize=16;" parent="O-lyJpqK40S3YLU1jmWo-1" vertex="1">
          <mxGeometry x="696" y="860.22" width="40" height="30" as="geometry" />
        </mxCell>
        <mxCell id="O-lyJpqK40S3YLU1jmWo-35" style="edgeStyle=none;curved=1;rounded=0;orthogonalLoop=1;jettySize=auto;html=1;fontSize=12;startSize=8;endSize=8;strokeColor=default;" parent="O-lyJpqK40S3YLU1jmWo-1" edge="1">
          <mxGeometry relative="1" as="geometry">
            <mxPoint x="694" y="1190.22" as="sourcePoint" />
            <mxPoint x="694.416666666667" y="1220.22" as="targetPoint" />
          </mxGeometry>
        </mxCell>
        <mxCell id="O-lyJpqK40S3YLU1jmWo-37" value="&lt;font color=&quot;#000099&quot;&gt;oui&lt;/font&gt;" style="text;html=1;align=center;verticalAlign=middle;resizable=0;points=[];autosize=1;strokeColor=none;fillColor=none;fontSize=16;" parent="O-lyJpqK40S3YLU1jmWo-1" vertex="1">
          <mxGeometry x="710" y="1190.22" width="40" height="30" as="geometry" />
        </mxCell>
        <mxCell id="GU38SLLu6r2fL0bZ5HxZ-3" value="&lt;font style=&quot;font-size: 11px;&quot;&gt;Existance de la liste d&#39;ingrédients&lt;/font&gt;" style="rhombus;whiteSpace=wrap;html=1;" parent="O-lyJpqK40S3YLU1jmWo-1" vertex="1">
          <mxGeometry x="582" y="698.22" width="193" height="168" as="geometry" />
        </mxCell>
        <mxCell id="eEkAvyaPnaVwtxJP-sON-5" value="" style="edgeStyle=elbowEdgeStyle;elbow=horizontal;endArrow=classic;html=1;curved=0;rounded=0;endSize=8;startSize=8;entryX=1.004;entryY=0.425;entryDx=0;entryDy=0;strokeColor=default;entryPerimeter=0;" parent="O-lyJpqK40S3YLU1jmWo-1" target="O-lyJpqK40S3YLU1jmWo-23" edge="1">
          <mxGeometry width="50" height="50" relative="1" as="geometry">
            <mxPoint x="696" y="1310.22" as="sourcePoint" />
            <mxPoint x="475.72" y="1417.22" as="targetPoint" />
            <Array as="points">
              <mxPoint x="695.72" y="1352.22" />
            </Array>
          </mxGeometry>
        </mxCell>
        <mxCell id="eEkAvyaPnaVwtxJP-sON-11" style="edgeStyle=orthogonalEdgeStyle;rounded=0;orthogonalLoop=1;jettySize=auto;html=1;exitX=0.25;exitY=1;exitDx=0;exitDy=0;entryX=0.779;entryY=-0.019;entryDx=0;entryDy=0;entryPerimeter=0;strokeColor=default;" parent="O-lyJpqK40S3YLU1jmWo-1" source="O-lyJpqK40S3YLU1jmWo-19" target="O-lyJpqK40S3YLU1jmWo-23" edge="1">
          <mxGeometry relative="1" as="geometry" />
        </mxCell>
        <mxCell id="eEkAvyaPnaVwtxJP-sON-18" style="edgeStyle=orthogonalEdgeStyle;rounded=0;orthogonalLoop=1;jettySize=auto;html=1;" parent="O-lyJpqK40S3YLU1jmWo-1" source="eEkAvyaPnaVwtxJP-sON-17" target="O-lyJpqK40S3YLU1jmWo-2" edge="1">
          <mxGeometry relative="1" as="geometry" />
        </mxCell>
        <mxCell id="eEkAvyaPnaVwtxJP-sON-17" value="&lt;font style=&quot;font-size: 16px;&quot;&gt;Affichage des recettes disponibles&lt;/font&gt;" style="rounded=1;whiteSpace=wrap;html=1;fillColor=#d5e8d4;strokeColor=none;" parent="O-lyJpqK40S3YLU1jmWo-1" vertex="1">
          <mxGeometry x="236.5" y="61" width="267" height="120" as="geometry" />
        </mxCell>
        <mxCell id="eEkAvyaPnaVwtxJP-sON-21" value="" style="edgeStyle=segmentEdgeStyle;endArrow=classic;html=1;curved=0;rounded=0;endSize=8;startSize=8;strokeWidth=2;fillColor=#dae8fc;strokeColor=#6c8ebf;entryX=0;entryY=0.5;entryDx=0;entryDy=0;" parent="O-lyJpqK40S3YLU1jmWo-1" target="O-lyJpqK40S3YLU1jmWo-14" edge="1">
          <mxGeometry width="50" height="50" relative="1" as="geometry">
            <mxPoint x="45" y="460" as="sourcePoint" />
            <mxPoint x="170" y="430" as="targetPoint" />
            <Array as="points">
              <mxPoint x="170" y="460" />
            </Array>
          </mxGeometry>
        </mxCell>
        <mxCell id="eEkAvyaPnaVwtxJP-sON-22" value="" style="line;strokeWidth=2;direction=south;html=1;perimeter=backbonePerimeter;points=[];outlineConnect=0;fillColor=#dae8fc;strokeColor=#6c8ebf;" parent="O-lyJpqK40S3YLU1jmWo-1" vertex="1">
          <mxGeometry x="40" y="460" width="10" height="940" as="geometry" />
        </mxCell>
        <mxCell id="eEkAvyaPnaVwtxJP-sON-24" value="" style="line;strokeWidth=2;html=1;fillColor=#dae8fc;strokeColor=#6c8ebf;" parent="O-lyJpqK40S3YLU1jmWo-1" vertex="1">
          <mxGeometry x="45" y="1390" width="165" height="20" as="geometry" />
        </mxCell>
        <mxCell id="eEkAvyaPnaVwtxJP-sON-32" value="" style="endArrow=classic;html=1;rounded=0;entryX=0.996;entryY=0.811;entryDx=0;entryDy=0;entryPerimeter=0;" parent="O-lyJpqK40S3YLU1jmWo-1" edge="1">
          <mxGeometry width="50" height="50" relative="1" as="geometry">
            <mxPoint x="890" y="1480.22" as="sourcePoint" />
            <mxPoint x="480.00000000000006" y="1480.6499999999999" as="targetPoint" />
          </mxGeometry>
        </mxCell>
        <mxCell id="eEkAvyaPnaVwtxJP-sON-34" value="" style="endArrow=none;html=1;rounded=0;" parent="O-lyJpqK40S3YLU1jmWo-1" edge="1">
          <mxGeometry width="50" height="50" relative="1" as="geometry">
            <mxPoint x="890" y="1480.22" as="sourcePoint" />
            <mxPoint x="889" y="785.22" as="targetPoint" />
          </mxGeometry>
        </mxCell>
        <mxCell id="eEkAvyaPnaVwtxJP-sON-35" value="" style="endArrow=none;html=1;rounded=0;exitX=0.972;exitY=0.523;exitDx=0;exitDy=0;exitPerimeter=0;" parent="O-lyJpqK40S3YLU1jmWo-1" source="GU38SLLu6r2fL0bZ5HxZ-3" edge="1">
          <mxGeometry width="50" height="50" relative="1" as="geometry">
            <mxPoint x="780" y="785.22" as="sourcePoint" />
            <mxPoint x="889" y="785.22" as="targetPoint" />
          </mxGeometry>
        </mxCell>
        <mxCell id="eEkAvyaPnaVwtxJP-sON-38" value="Correpondance de la recherche avec&lt;b&gt; la Description&lt;/b&gt;" style="rhombus;whiteSpace=wrap;html=1;" parent="O-lyJpqK40S3YLU1jmWo-1" vertex="1">
          <mxGeometry x="339" y="707.22" width="198" height="159" as="geometry" />
        </mxCell>
        <mxCell id="eEkAvyaPnaVwtxJP-sON-39" style="edgeStyle=orthogonalEdgeStyle;rounded=0;orthogonalLoop=1;jettySize=auto;html=1;entryX=0.041;entryY=0.527;entryDx=0;entryDy=0;entryPerimeter=0;" parent="O-lyJpqK40S3YLU1jmWo-1" source="eEkAvyaPnaVwtxJP-sON-38" target="GU38SLLu6r2fL0bZ5HxZ-3" edge="1">
          <mxGeometry relative="1" as="geometry" />
        </mxCell>
        <mxCell id="eEkAvyaPnaVwtxJP-sON-55" style="edgeStyle=orthogonalEdgeStyle;rounded=0;orthogonalLoop=1;jettySize=auto;html=1;" parent="O-lyJpqK40S3YLU1jmWo-1" source="eEkAvyaPnaVwtxJP-sON-40" edge="1">
          <mxGeometry relative="1" as="geometry">
            <mxPoint x="193" y="910.22" as="targetPoint" />
          </mxGeometry>
        </mxCell>
        <mxCell id="eEkAvyaPnaVwtxJP-sON-40" value="Correpondance de la recherche avec&lt;b&gt; le Nom&lt;br&gt;&lt;/b&gt;" style="rhombus;whiteSpace=wrap;html=1;" parent="O-lyJpqK40S3YLU1jmWo-1" vertex="1">
          <mxGeometry x="94" y="702.72" width="198" height="159" as="geometry" />
        </mxCell>
        <mxCell id="eEkAvyaPnaVwtxJP-sON-48" value="" style="endArrow=classic;html=1;rounded=0;exitX=0.313;exitY=0.998;exitDx=0;exitDy=0;exitPerimeter=0;entryX=0.737;entryY=0.236;entryDx=0;entryDy=0;entryPerimeter=0;" parent="O-lyJpqK40S3YLU1jmWo-1" target="eEkAvyaPnaVwtxJP-sON-40" edge="1">
          <mxGeometry width="50" height="50" relative="1" as="geometry">
            <mxPoint x="330.97" y="650" as="sourcePoint" />
            <mxPoint x="321.5" y="690.22" as="targetPoint" />
          </mxGeometry>
        </mxCell>
        <mxCell id="eEkAvyaPnaVwtxJP-sON-58" style="edgeStyle=orthogonalEdgeStyle;rounded=0;orthogonalLoop=1;jettySize=auto;html=1;entryX=0.027;entryY=0.473;entryDx=0;entryDy=0;entryPerimeter=0;" parent="O-lyJpqK40S3YLU1jmWo-1" source="eEkAvyaPnaVwtxJP-sON-40" target="eEkAvyaPnaVwtxJP-sON-38" edge="1">
          <mxGeometry relative="1" as="geometry" />
        </mxCell>
        <mxCell id="eEkAvyaPnaVwtxJP-sON-59" value="" style="endArrow=classic;html=1;rounded=0;entryX=0.996;entryY=0.811;entryDx=0;entryDy=0;entryPerimeter=0;" parent="O-lyJpqK40S3YLU1jmWo-1" edge="1">
          <mxGeometry width="50" height="50" relative="1" as="geometry">
            <mxPoint x="850" y="1450.22" as="sourcePoint" />
            <mxPoint x="480.00000000000006" y="1450.6499999999999" as="targetPoint" />
          </mxGeometry>
        </mxCell>
        <mxCell id="eEkAvyaPnaVwtxJP-sON-60" value="" style="endArrow=none;html=1;rounded=0;exitX=0.986;exitY=0.479;exitDx=0;exitDy=0;exitPerimeter=0;" parent="O-lyJpqK40S3YLU1jmWo-1" source="eEkAvyaPnaVwtxJP-sON-62" edge="1">
          <mxGeometry width="50" height="50" relative="1" as="geometry">
            <mxPoint x="791.5" y="1110.22" as="sourcePoint" />
            <mxPoint x="850" y="1110.22" as="targetPoint" />
          </mxGeometry>
        </mxCell>
        <mxCell id="eEkAvyaPnaVwtxJP-sON-61" value="" style="endArrow=none;html=1;rounded=0;" parent="O-lyJpqK40S3YLU1jmWo-1" edge="1">
          <mxGeometry width="50" height="50" relative="1" as="geometry">
            <mxPoint x="850" y="1450.22" as="sourcePoint" />
            <mxPoint x="850" y="1110.22" as="targetPoint" />
          </mxGeometry>
        </mxCell>
        <mxCell id="eEkAvyaPnaVwtxJP-sON-62" value="Correpondance de la recherche avec &lt;b&gt;un Ingrédient&lt;/b&gt;" style="rhombus;whiteSpace=wrap;html=1;" parent="O-lyJpqK40S3YLU1jmWo-1" vertex="1">
          <mxGeometry x="598.5" y="1030.22" width="193" height="168" as="geometry" />
        </mxCell>
        <mxCell id="eEkAvyaPnaVwtxJP-sON-63" value="&lt;font color=&quot;#cc0066&quot;&gt;non&lt;/font&gt;" style="text;html=1;align=center;verticalAlign=middle;resizable=0;points=[];autosize=1;strokeColor=none;fillColor=none;fontSize=16;" parent="O-lyJpqK40S3YLU1jmWo-1" vertex="1">
          <mxGeometry x="791.5" y="1080.22" width="50" height="30" as="geometry" />
        </mxCell>
        <mxCell id="-RLxROrZtWnF0igENEq9-3" style="edgeStyle=orthogonalEdgeStyle;rounded=0;orthogonalLoop=1;jettySize=auto;html=1;entryX=0.506;entryY=-0.017;entryDx=0;entryDy=0;entryPerimeter=0;" edge="1" parent="O-lyJpqK40S3YLU1jmWo-1">
          <mxGeometry relative="1" as="geometry">
            <mxPoint x="366" y="490" as="sourcePoint" />
            <mxPoint x="366.3300000000001" y="540" as="targetPoint" />
          </mxGeometry>
        </mxCell>
      </root>
    </mxGraphModel>
  </diagram>
</mxfile>
